<mxfile host="app.diagrams.net" modified="2023-12-12T20:17:59.621Z" agent="Mozilla/5.0 (Windows NT 10.0; Win64; x64; rv:109.0) Gecko/20100101 Firefox/119.0" etag="yfq6qdlgWuVukseKoVMa" version="22.1.7" type="github">
  <diagram name="Page-1" id="1MV46rAHlPbw8p71Xk87">
    <mxGraphModel dx="960" dy="748" grid="1" gridSize="10" guides="1" tooltips="1" connect="1" arrows="1" fold="1" page="1" pageScale="1" pageWidth="827" pageHeight="1169" math="0" shadow="0">
      <root>
        <mxCell id="0" />
        <mxCell id="1" parent="0" />
        <mxCell id="-r5W60An7yHclekTi8GZ-2" value="" style="rounded=0;whiteSpace=wrap;html=1;" vertex="1" parent="1">
          <mxGeometry x="270" y="330" width="100" height="100" as="geometry" />
        </mxCell>
        <mxCell id="-r5W60An7yHclekTi8GZ-1" value="Drawers" style="ellipse;whiteSpace=wrap;html=1;aspect=fixed;" vertex="1" parent="1">
          <mxGeometry x="280" y="340" width="80" height="80" as="geometry" />
        </mxCell>
        <mxCell id="-r5W60An7yHclekTi8GZ-3" value="&lt;div&gt;Filing&lt;/div&gt;&lt;div&gt;Cabinets&lt;br&gt;&lt;/div&gt;" style="text;html=1;strokeColor=none;fillColor=none;align=center;verticalAlign=middle;whiteSpace=wrap;rounded=0;" vertex="1" parent="1">
          <mxGeometry x="290" y="300" width="60" height="30" as="geometry" />
        </mxCell>
      </root>
    </mxGraphModel>
  </diagram>
</mxfile>
